<?xml version="1.0" standalone="no"?>
<!DOCTYPE svg PUBLIC "-//W3C//DTD SVG 20010904//EN"
 "http://www.w3.org/TR/2001/REC-SVG-20010904/DTD/svg10.dtd">
<svg version="1.0" xmlns="http://www.w3.org/2000/svg"
 width="1080.000000pt" height="1080.000000pt" viewBox="0 0 1080.000000 1080.000000"
 preserveAspectRatio="xMidYMid meet">
<metadata>
Created by potrace 1.14, written by Peter Selinger 2001-2017
</metadata>
<g transform="translate(0.000000,1080.000000) scale(0.100000,-0.100000)"
fill="#000000" stroke="none">
<path d="M5103 9713 c7 -10 -10 -13 -100 -15 -22 0 -30 -4 -26 -12 4 -6 -1 -5
-10 3 -9 7 -17 10 -17 5 0 -5 -17 -9 -37 -8 -21 0 -44 -4 -50 -9 -9 -6 -13 -5
-13 3 0 9 -3 10 -13 1 -10 -8 -17 -7 -27 2 -10 9 -11 9 -6 0 5 -9 -1 -13 -18
-14 -14 -1 -34 -2 -43 -2 -10 -1 -21 -6 -25 -12 -5 -6 -8 -4 -8 5 0 13 -1 13
-10 0 -9 -13 -10 -13 -10 0 0 12 -2 13 -9 1 -5 -8 -25 -13 -50 -13 -22 0 -43
-3 -46 -9 -4 -5 -22 -9 -41 -9 -19 0 -33 -4 -30 -8 3 -5 -1 -9 -9 -9 -8 0 -15
5 -15 11 0 6 -5 5 -12 -2 -7 -7 -22 -12 -34 -12 -13 0 -25 -4 -28 -8 -3 -5
-21 -8 -40 -7 -19 0 -33 -2 -30 -6 6 -10 -24 -19 -41 -13 -8 4 -15 2 -15 -3 0
-8 -25 -13 -72 -16 -9 -1 -14 -5 -12 -9 3 -4 2 -8 -3 -9 -49 -4 -87 -12 -93
-21 -3 -4 -18 -8 -33 -10 -16 -3 -32 -8 -35 -14 -4 -5 -16 -10 -27 -11 -46 -4
-61 -9 -72 -23 -7 -8 -13 -12 -13 -7 0 4 -16 1 -35 -7 -19 -8 -35 -13 -35 -10
0 3 -7 -1 -15 -10 -8 -8 -24 -13 -35 -11 -11 2 -18 0 -15 -6 4 -5 -1 -9 -10
-9 -8 0 -23 -4 -33 -10 -31 -17 -111 -50 -121 -50 -6 0 -11 -4 -11 -10 0 -5
-7 -7 -15 -4 -8 4 -15 1 -15 -5 0 -6 -9 -11 -20 -11 -11 0 -20 -5 -20 -11 0
-5 -4 -8 -9 -5 -5 3 -12 -1 -15 -10 -4 -9 -9 -14 -13 -11 -3 3 -18 0 -33 -8
-15 -8 -31 -11 -35 -7 -5 4 -5 1 -1 -5 6 -12 -5 -18 -26 -14 -5 0 -8 -3 -8 -7
0 -5 -16 -14 -35 -22 -19 -7 -32 -17 -29 -22 3 -4 -2 -5 -10 -2 -9 3 -16 1
-16 -5 0 -6 -9 -11 -20 -11 -11 0 -20 -4 -20 -10 0 -5 -7 -10 -16 -10 -8 0
-13 -4 -10 -8 2 -4 -4 -8 -14 -9 -11 -1 -29 -11 -41 -22 -12 -11 -26 -18 -31
-15 -4 3 -8 0 -8 -5 0 -6 -7 -11 -15 -11 -8 0 -15 -4 -15 -10 0 -5 -7 -10 -15
-10 -8 0 -15 -5 -15 -11 0 -5 -4 -7 -10 -4 -5 3 -10 3 -10 -2 0 -8 -45 -37
-65 -42 -5 -1 -14 -9 -18 -17 -4 -8 -12 -14 -18 -14 -5 0 -15 -5 -22 -10 -49
-42 -61 -49 -70 -43 -5 3 -7 2 -4 -3 3 -6 -12 -21 -34 -34 -21 -14 -39 -28
-39 -32 0 -5 -7 -8 -16 -8 -9 0 -12 -5 -8 -12 5 -8 2 -9 -10 -5 -9 4 -15 3
-12 -2 6 -9 -22 -26 -37 -22 -5 1 -6 -3 -2 -9 3 -5 -2 -13 -12 -17 -10 -4 -30
-18 -44 -32 -48 -48 -77 -69 -83 -64 -3 4 -6 -1 -6 -10 0 -15 -11 -22 -32 -18
-5 0 -8 -3 -8 -9 0 -5 -21 -29 -46 -52 -82 -76 -274 -268 -274 -275 0 -3 -13
-19 -30 -35 -16 -15 -30 -33 -30 -39 0 -5 -5 -7 -10 -4 -5 3 -10 2 -10 -3 0
-10 -35 -53 -41 -49 -2 1 -3 0 -2 -2 3 -5 -47 -69 -81 -103 -19 -18 -23 -28
-14 -31 9 -4 8 -6 -3 -6 -9 -1 -24 -16 -33 -33 -8 -18 -16 -29 -16 -25 0 4 -6
2 -14 -5 -8 -7 -12 -16 -10 -19 1 -3 -10 -20 -25 -37 -16 -17 -26 -33 -23 -36
3 -3 -1 -6 -8 -6 -7 0 -10 -3 -7 -6 4 -4 -1 -14 -11 -23 -10 -9 -28 -36 -40
-61 -12 -25 -22 -40 -22 -35 0 6 -10 -6 -22 -25 -12 -19 -21 -39 -20 -43 1 -4
-5 -10 -13 -13 -8 -4 -15 -15 -15 -25 0 -10 -4 -19 -8 -19 -5 0 -17 -17 -28
-37 -10 -21 -23 -41 -29 -45 -6 -5 -6 -8 -1 -8 6 0 1 -7 -10 -15 -10 -8 -15
-15 -11 -15 9 0 -42 -91 -56 -101 -5 -3 -8 -8 -6 -10 5 -9 -13 -49 -23 -49 -6
0 -9 -3 -6 -6 4 -3 -7 -30 -23 -61 -16 -30 -27 -59 -24 -63 3 -4 -2 -10 -10
-14 -8 -3 -15 -15 -15 -26 0 -11 -5 -20 -12 -20 -6 0 -8 -3 -5 -7 4 -3 2 -12
-3 -19 -6 -6 -13 -22 -15 -34 -2 -13 -12 -32 -22 -43 -10 -11 -13 -17 -6 -14
8 5 8 1 0 -18 -7 -14 -16 -25 -20 -25 -5 0 -6 -4 -3 -9 9 -14 -5 -42 -17 -34
-5 3 -7 1 -4 -4 4 -6 0 -29 -7 -51 -8 -22 -12 -43 -9 -46 4 -3 1 -6 -5 -6 -7
0 -12 -6 -12 -14 0 -8 -5 -27 -12 -43 -6 -15 -12 -30 -13 -33 -21 -71 -29 -98
-29 -110 0 -8 -4 -17 -8 -20 -4 -3 -9 -17 -12 -30 -2 -14 -12 -49 -21 -79 -9
-29 -14 -60 -11 -68 3 -8 1 -11 -4 -8 -6 3 -11 -1 -11 -9 -3 -35 -6 -52 -12
-66 -7 -17 -17 -69 -23 -120 -2 -19 -6 -41 -10 -50 -9 -21 -16 -69 -16 -102 0
-15 -3 -26 -7 -24 -4 3 -7 -22 -6 -54 0 -32 -3 -56 -7 -54 -4 2 -9 0 -13 -6
-3 -5 -1 -10 6 -10 7 0 8 -4 2 -12 -5 -7 -9 -39 -9 -71 1 -47 -2 -56 -14 -52
-9 3 -7 -1 4 -10 11 -8 15 -15 9 -15 -6 0 -11 -15 -11 -32 1 -51 -9 -125 -17
-139 -5 -7 -4 -10 2 -6 6 4 11 -4 11 -18 0 -14 -5 -22 -10 -19 -6 4 -5 -3 1
-14 14 -25 14 -35 2 -27 -11 6 -7 -28 5 -47 4 -6 3 -8 -4 -4 -7 4 -10 -1 -9
-14 1 -11 5 -20 9 -20 4 0 8 -5 8 -11 0 -5 -6 -7 -12 -3 -10 6 -10 4 0 -8 9
-11 10 -18 2 -23 -5 -3 -10 -14 -10 -23 0 -15 2 -15 10 -2 5 8 10 10 10 5 0
-6 -5 -16 -11 -22 -8 -8 -8 -13 0 -17 6 -4 11 -13 11 -19 0 -7 -4 -6 -10 3 -8
12 -10 10 -10 -8 0 -13 3 -21 8 -18 10 6 8 -67 -3 -84 -5 -8 -4 -11 2 -7 6 4
10 -14 10 -47 0 -29 3 -58 7 -64 3 -6 0 -13 -6 -16 -10 -5 -10 -7 -1 -12 6 -3
9 -17 7 -30 -3 -14 -1 -23 3 -21 4 3 8 -32 8 -76 0 -45 3 -87 7 -93 4 -6 8
-26 9 -45 2 -19 7 -42 12 -53 7 -13 6 -16 -3 -11 -9 6 -9 3 -2 -12 6 -11 12
-41 14 -66 2 -26 5 -47 8 -47 5 0 11 -37 13 -82 1 -10 4 -18 7 -18 5 0 9 -20
11 -63 0 -9 4 -17 8 -17 4 0 8 -11 9 -25 3 -45 5 -55 11 -55 3 0 7 -10 8 -23
4 -36 9 -56 16 -63 4 -4 7 -17 7 -29 0 -11 5 -26 12 -33 9 -9 9 -12 -1 -12 -7
0 -9 -5 -6 -10 4 -6 10 -8 14 -6 4 3 8 -6 9 -20 3 -47 5 -54 15 -54 6 0 8 -3
4 -6 -3 -3 1 -23 8 -44 7 -21 10 -42 7 -46 -4 -4 -1 -4 6 0 11 6 18 -18 13
-46 0 -5 3 -8 8 -8 5 0 8 -11 7 -25 -2 -13 1 -22 5 -19 5 3 10 0 10 -5 2 -12
5 -26 9 -38 1 -5 2 -11 1 -16 0 -4 3 -7 9 -7 5 0 10 -9 10 -20 0 -11 4 -20 9
-20 6 0 8 -9 6 -20 -2 -11 0 -20 6 -20 5 0 9 -9 9 -21 0 -13 4 -18 12 -13 6 4
8 3 5 -3 -4 -6 0 -23 8 -39 7 -15 12 -31 9 -36 -3 -4 2 -8 11 -8 9 0 14 -4 10
-9 -3 -6 4 -25 15 -43 11 -18 20 -41 20 -50 0 -10 5 -18 12 -18 6 0 8 -3 5 -7
-4 -3 0 -15 10 -25 9 -10 13 -18 8 -18 -4 0 -3 -6 3 -13 21 -24 70 -126 64
-131 -3 -3 0 -6 6 -6 7 0 12 -7 12 -16 0 -8 5 -12 10 -9 6 3 10 -3 10 -14 0
-12 5 -21 10 -21 6 0 10 -9 10 -20 0 -11 4 -20 9 -20 8 0 21 -28 25 -50 0 -3
10 -14 21 -25 11 -11 21 -27 23 -35 2 -8 8 -16 13 -18 5 -2 9 -8 9 -13 0 -6 9
-19 20 -31 11 -12 20 -28 20 -35 0 -7 5 -13 10 -13 6 0 10 -7 10 -15 0 -8 5
-15 10 -15 6 0 10 -5 10 -11 0 -7 8 -18 17 -25 10 -7 18 -16 18 -21 1 -16 42
-73 48 -66 4 3 7 -1 7 -10 0 -9 5 -17 11 -17 5 0 8 -4 5 -8 -3 -5 4 -15 15
-22 10 -8 19 -19 19 -25 0 -6 9 -17 20 -25 11 -8 20 -20 20 -26 0 -7 12 -22
28 -34 15 -12 20 -18 12 -14 -8 5 2 -9 23 -29 20 -21 37 -42 37 -47 0 -6 7
-10 15 -10 9 0 12 -6 8 -17 -4 -10 -2 -14 4 -10 6 4 18 -4 26 -16 8 -13 33
-42 56 -64 22 -23 37 -44 34 -47 -4 -3 -1 -6 6 -6 14 0 71 -56 71 -70 0 -6 7
-10 16 -10 8 0 12 -5 9 -10 -3 -5 -2 -10 4 -10 5 0 33 -23 61 -50 28 -28 56
-50 61 -50 5 0 9 -7 9 -15 0 -9 8 -19 18 -22 9 -4 24 -15 33 -25 9 -10 22 -18
28 -18 7 0 9 -4 6 -10 -3 -6 0 -10 7 -10 7 0 29 -17 48 -37 18 -21 36 -37 37
-35 4 3 69 -48 98 -76 8 -6 17 -12 22 -12 5 0 15 -9 23 -19 7 -11 17 -18 21
-16 3 3 19 -7 33 -20 15 -14 31 -25 37 -25 5 0 9 -4 9 -10 0 -5 7 -10 16 -10
9 0 12 -5 8 -12 -4 -6 -3 -8 4 -4 6 3 17 -1 25 -9 9 -8 21 -15 27 -15 6 0 8
-5 4 -12 -4 -6 -3 -8 4 -4 6 3 21 -4 34 -16 13 -13 30 -24 38 -26 8 -2 17 -7
20 -10 3 -4 15 -13 28 -19 12 -7 32 -19 45 -25 12 -7 24 -15 27 -18 3 -3 25
-16 50 -29 25 -14 48 -29 52 -35 4 -6 8 -7 8 -3 0 4 6 3 13 -3 19 -16 150 -80
164 -80 7 0 13 -3 13 -8 0 -7 77 -44 84 -39 2 1 13 -7 25 -17 12 -11 21 -16
21 -12 0 4 10 1 23 -6 22 -12 28 -14 48 -17 5 0 8 -5 4 -10 -3 -6 4 -8 15 -6
11 2 20 -1 20 -6 0 -6 4 -8 9 -4 5 3 12 1 16 -5 4 -6 11 -8 16 -5 5 4 9 1 9
-4 0 -6 3 -10 8 -9 4 0 16 -2 27 -7 11 -4 35 -14 54 -21 18 -8 37 -12 41 -9 5
3 10 0 12 -5 2 -6 13 -12 26 -13 12 0 22 -5 22 -9 0 -4 11 -8 25 -8 14 0 25
-4 25 -8 0 -5 7 -9 15 -9 22 0 96 -23 129 -40 23 -13 27 -13 21 -2 -6 11 -5
12 6 1 7 -6 24 -12 37 -12 13 0 21 -4 18 -9 -3 -4 6 -6 19 -3 14 2 25 0 25 -6
0 -6 9 -9 20 -7 11 2 20 0 20 -5 0 -4 8 -7 17 -6 10 2 31 -2 48 -9 16 -6 40
-11 53 -10 12 1 22 -2 22 -7 0 -5 5 -6 10 -3 6 3 10 1 10 -6 0 -10 3 -10 12
-1 9 9 16 8 30 -5 11 -10 18 -12 18 -4 0 9 5 9 23 0 12 -7 23 -12 25 -11 1 1
11 2 23 2 13 0 18 -4 13 -12 -5 -7 -3 -8 7 -2 18 11 39 14 39 6 0 -4 17 -8 38
-10 44 -3 63 -6 77 -12 6 -3 33 -5 60 -5 32 0 55 -5 63 -15 8 -8 11 -9 7 -2
-7 14 11 17 20 2 4 -7 13 -7 26 0 10 6 19 7 19 3 0 -4 30 -8 66 -8 36 0 68 -3
71 -7 2 -5 9 -8 14 -8 6 0 8 4 5 8 -6 10 30 9 40 -1 12 -12 26 -8 18 6 -6 9
-4 9 7 1 17 -14 305 -17 329 -4 11 6 21 5 27 -1 8 -8 13 -7 17 0 4 6 13 11 19
11 7 0 6 -4 -3 -10 -13 -8 -12 -10 3 -10 9 0 17 5 17 10 0 6 5 10 11 10 5 0 8
-4 4 -9 -3 -6 4 -8 17 -4 13 3 39 6 59 8 20 1 42 5 48 9 6 4 11 2 11 -5 0 -8
4 -8 16 2 13 10 17 10 24 0 6 -10 9 -10 12 -1 2 7 28 14 63 16 86 6 119 9 130
15 6 3 24 5 42 4 18 -1 30 2 28 5 -2 4 15 7 38 8 23 1 44 7 45 12 2 6 8 10 13
10 6 0 8 -4 5 -8 -6 -10 72 9 92 21 7 5 12 3 12 -4 0 -8 4 -8 15 1 9 7 18 10
22 7 3 -4 13 -2 20 5 8 6 33 13 55 14 23 2 44 7 47 12 3 5 14 8 24 6 9 -1 17
2 17 7 0 5 11 9 25 9 14 0 41 7 60 14 26 11 35 12 35 3 0 -9 2 -9 8 0 4 7 17
14 27 16 11 2 36 10 55 19 20 9 38 11 41 6 3 -6 9 -3 12 6 4 9 14 13 26 11 15
-3 18 0 14 12 -4 11 -3 14 6 9 7 -5 24 -3 39 2 43 16 62 22 66 19 2 -1 12 5
22 14 11 9 27 15 37 14 9 -2 17 1 17 6 0 5 9 9 20 9 11 0 20 4 20 9 0 6 9 8
20 6 13 -2 20 2 20 11 0 8 4 12 10 9 5 -3 20 1 32 9 13 8 25 15 28 15 11 -1
65 26 72 36 4 5 8 7 8 2 0 -9 142 63 152 78 4 5 8 7 8 3 0 -9 86 37 111 58 8
8 23 14 32 14 9 0 17 4 17 9 0 5 10 13 22 17 12 3 43 21 69 40 26 18 50 30 53
27 3 -4 6 -1 6 5 0 7 7 12 15 12 8 0 15 5 15 10 0 6 5 10 11 10 12 0 92 60 97
72 2 5 7 6 12 3 4 -2 20 7 34 20 15 14 31 25 37 25 5 0 9 5 9 11 0 5 4 8 9 5
5 -3 12 1 15 10 3 8 10 12 16 9 5 -3 10 1 10 9 0 9 3 15 8 14 7 -3 23 8 63 44
10 10 19 16 19 13 0 -5 27 17 98 80 24 22 49 39 53 37 5 -1 9 2 9 8 0 5 9 19
20 30 11 11 20 18 20 15 0 -3 27 21 60 54 33 33 60 58 60 55 0 -3 6 1 14 8 8
7 12 16 10 20 -2 4 4 9 13 12 10 3 27 19 38 36 11 16 26 30 34 30 7 0 11 6 7
15 -3 8 -1 14 3 12 10 -2 71 62 71 75 0 5 3 7 8 5 4 -3 13 1 20 9 7 8 10 14 7
14 -2 0 9 14 27 30 17 17 27 30 22 30 -5 0 -1 5 9 11 9 6 15 14 12 20 -4 5 2
6 11 2 11 -4 15 -3 10 5 -3 6 4 18 16 26 12 9 19 16 14 16 -5 0 3 12 18 26 14
15 26 31 26 36 0 5 5 6 12 2 6 -4 8 -3 5 3 -3 5 5 21 19 36 14 15 22 27 19 27
-3 0 11 17 30 37 19 20 35 43 35 50 0 7 5 13 12 13 6 0 8 3 5 7 -4 3 4 16 16
27 13 12 22 27 20 33 -2 6 5 17 17 23 11 6 18 15 15 21 -4 5 1 12 10 15 9 4
14 13 11 20 -3 8 1 14 9 14 8 0 14 3 13 8 -3 8 32 64 47 74 5 4 6 8 1 8 -5 0
0 10 11 23 11 12 26 37 34 54 8 18 18 33 22 33 5 0 5 5 2 10 -3 6 1 13 10 16
9 4 14 13 11 20 -3 8 -2 14 2 14 8 0 38 62 34 73 -1 4 3 7 9 7 5 0 15 13 20
30 6 16 15 28 19 25 4 -3 7 1 7 8 -1 20 24 77 35 77 5 0 6 4 3 10 -3 5 1 20
10 33 8 13 12 27 8 30 -3 4 -2 7 4 7 10 0 24 30 27 55 1 6 7 16 14 23 7 8 10
18 7 23 -4 5 -1 9 4 9 6 0 10 3 9 8 -1 4 3 17 10 29 7 13 10 23 6 23 -3 0 -2
6 3 13 11 13 33 77 32 91 0 5 4 12 10 15 6 4 12 16 14 26 8 44 20 75 27 75 5
0 7 12 5 26 -1 14 3 28 11 31 7 2 10 11 7 19 -3 8 1 24 9 37 8 12 14 34 13 49
-1 15 2 25 7 22 4 -3 8 -2 9 3 3 33 13 76 20 88 4 6 5 18 4 28 -2 9 0 17 4 17
6 0 11 20 14 63 1 9 4 17 8 17 4 0 6 13 5 30 -1 16 2 31 8 33 5 2 9 20 9 40 0
20 4 37 8 37 4 0 6 9 4 20 -2 11 -1 20 3 20 4 0 7 12 6 28 0 15 4 30 10 35 8
5 7 10 -3 16 -7 5 -9 10 -3 12 6 2 12 20 13 39 2 19 8 38 14 42 6 5 5 8 -3 8
-7 0 -10 5 -6 11 4 6 9 34 11 63 3 28 6 53 9 55 2 2 -1 10 -8 18 -9 11 -8 13
2 11 10 -2 13 15 14 72 1 41 6 78 11 82 6 5 4 8 -5 8 -12 1 -11 3 3 11 12 7
15 15 9 22 -8 11 -9 93 -1 101 2 3 3 93 3 201 -1 154 -5 199 -15 206 -11 7
-11 9 -1 9 10 0 10 5 2 20 -9 17 -8 19 7 13 16 -6 16 -5 4 10 -8 10 -14 45
-15 85 -2 38 -6 74 -11 81 -4 8 -2 16 5 21 9 6 10 8 0 12 -7 2 -12 21 -12 43
0 21 -4 49 -9 62 -6 15 -5 23 2 23 8 0 8 4 1 13 -6 7 -12 32 -13 55 -2 23 -5
42 -8 42 -4 0 -7 24 -9 52 -2 29 -6 55 -10 58 -4 3 -8 16 -9 30 -5 50 -7 60
-15 60 -4 0 -5 9 -3 20 2 11 0 22 -6 25 -5 4 -9 11 -9 16 0 6 6 7 13 3 9 -6 9
-5 0 7 -6 8 -17 37 -24 64 -6 28 -17 56 -23 64 -9 12 -8 13 4 6 12 -7 13 -6 3
6 -11 13 -23 55 -25 87 -1 6 -4 12 -8 12 -5 0 -10 21 -13 62 -1 9 -5 14 -9 12
-7 -4 -10 18 -7 42 0 4 -4 10 -10 13 -5 4 -12 18 -15 33 -2 14 -9 35 -15 46
-6 11 -7 22 -4 26 3 3 1 6 -5 6 -7 0 -11 3 -10 8 3 7 -12 50 -35 102 -6 14
-11 28 -13 33 -1 4 -3 10 -4 15 -1 4 -2 10 -1 15 0 4 -4 7 -11 7 -6 0 -9 3 -6
6 4 3 0 17 -7 31 -8 15 -11 31 -8 36 3 6 1 7 -5 3 -8 -5 -12 2 -12 19 0 15 -4
24 -10 20 -6 -4 -10 5 -10 20 0 15 -4 24 -10 20 -5 -3 -10 3 -10 14 0 12 -5
21 -11 21 -5 0 -8 4 -5 9 3 4 -1 17 -9 27 -8 10 -15 27 -15 37 0 9 -3 17 -8
17 -4 0 -13 9 -20 21 -8 12 -9 18 -4 15 6 -3 5 5 -1 19 -7 14 -15 25 -19 25
-5 0 -8 7 -8 15 0 8 -5 15 -11 15 -5 0 -8 4 -4 9 3 5 -2 16 -11 25 -8 9 -12
20 -9 26 3 5 -1 10 -9 10 -9 0 -16 9 -16 20 0 11 -5 20 -11 20 -6 0 -9 7 -5
15 3 8 0 14 -6 12 -7 -1 -13 3 -13 8 -3 20 -28 65 -37 65 -5 0 -7 4 -4 8 3 5
-4 14 -14 22 -10 8 -17 17 -14 21 3 5 -3 17 -13 28 -34 38 -44 51 -36 51 4 0
0 5 -9 11 -10 5 -18 16 -18 24 0 8 -8 20 -17 27 -10 7 -19 20 -21 28 -2 8 -10
20 -17 26 -8 6 -12 14 -8 17 3 4 2 7 -3 7 -5 0 -20 18 -34 39 -13 22 -28 37
-34 34 -5 -3 -6 -1 -2 5 3 6 -6 24 -21 40 -41 42 -74 82 -68 82 3 0 -9 13 -25
29 -17 15 -30 31 -30 34 0 3 -18 25 -40 47 -22 22 -40 45 -40 50 0 6 -8 10
-17 10 -9 0 -14 3 -10 6 7 7 -250 264 -264 264 -6 0 -7 5 -4 10 3 6 -2 13 -12
17 -25 10 -43 29 -35 38 4 5 2 5 -5 1 -6 -3 -16 2 -22 11 -6 10 -11 14 -11 9
0 -4 -12 5 -28 20 -48 50 -116 104 -130 104 -7 0 -10 5 -7 10 3 6 1 10 -4 10
-6 0 -19 8 -29 18 -10 9 -29 24 -42 32 -12 8 -28 21 -36 28 -7 6 -17 12 -23
12 -6 0 -11 5 -11 11 0 5 -5 7 -12 3 -8 -5 -9 -2 -5 10 6 14 3 16 -13 11 -14
-5 -20 -2 -20 10 0 9 -4 13 -10 10 -5 -3 -10 -1 -10 4 0 6 -7 11 -15 11 -8 0
-15 5 -15 10 0 6 -5 10 -12 10 -6 0 -27 12 -47 27 -20 16 -39 27 -43 25 -5 -1
-8 2 -8 7 0 5 -13 14 -30 21 -16 7 -30 17 -30 22 0 5 -4 6 -10 3 -5 -3 -10 -1
-10 4 0 6 -7 11 -15 11 -8 0 -15 4 -15 8 0 5 -16 14 -35 22 -19 8 -35 17 -35
22 0 4 -7 8 -15 8 -8 0 -23 8 -32 18 -10 9 -22 17 -28 17 -11 0 -97 44 -105
54 -3 3 -14 8 -25 9 -11 2 -21 8 -23 13 -2 5 -13 9 -23 9 -12 0 -17 4 -14 11
4 6 1 9 -6 8 -8 -2 -24 2 -37 9 -12 7 -28 10 -34 6 -7 -4 -8 -3 -4 4 6 11 -6
16 -26 13 -5 0 -8 4 -8 10 0 5 -4 7 -10 4 -5 -3 -10 -2 -10 4 0 5 -18 12 -39
16 -22 4 -45 13 -52 21 -6 7 -15 11 -20 8 -5 -3 -9 0 -9 7 0 7 -3 10 -6 6 -4
-3 -20 1 -36 9 -16 8 -33 12 -38 9 -6 -4 -13 1 -16 10 -4 9 -13 14 -20 11 -7
-3 -16 -1 -19 4 -4 6 -17 10 -31 10 -13 0 -24 5 -24 11 0 6 -6 9 -14 6 -8 -3
-22 0 -32 8 -10 7 -24 11 -30 8 -7 -2 -15 1 -19 6 -3 6 -11 9 -16 6 -5 -4 -9
-2 -9 3 0 5 -6 9 -12 10 -40 4 -68 11 -88 22 -12 6 -28 9 -36 6 -8 -3 -14 -2
-14 3 0 4 -6 8 -12 9 -31 4 -55 10 -78 19 -14 6 -33 9 -43 7 -13 -2 -17 1 -13
12 4 11 2 12 -12 5 -10 -5 -24 -6 -32 -1 -7 4 -22 7 -32 5 -10 -2 -18 -1 -18
3 0 4 -14 9 -32 10 -17 2 -38 8 -47 15 -12 10 -13 9 -6 -3 7 -12 6 -13 -6 -3
-9 7 -25 11 -37 8 -12 -2 -24 0 -27 5 -3 5 -13 6 -22 3 -9 -4 -14 -2 -11 3 4
5 -23 10 -60 11 -41 1 -68 7 -73 15 -7 11 -9 11 -9 0 0 -8 -5 -10 -12 -5 -7 4
-33 8 -58 9 -63 3 -62 3 -54 17 6 8 3 8 -9 -2 -10 -8 -24 -10 -34 -6 -10 4
-46 8 -80 8 -38 0 -63 5 -63 11 0 7 -3 7 -8 1 -4 -5 -18 -11 -32 -13 -19 -2
-22 0 -10 8 13 9 13 10 -1 10 -8 0 -20 -5 -27 -12 -9 -9 -15 -9 -24 0 -16 16
-31 15 -22 0 6 -10 4 -10 -7 -2 -20 15 -202 16 -211 1 -6 -9 -8 -9 -8 1 0 15
-56 16 -65 2 -5 -8 -11 -8 -19 -1 -9 7 -17 7 -26 -2 -7 -6 -10 -7 -7 -1 3 6 0
11 -8 11 -8 0 -12 -4 -9 -8 6 -10 -38 -5 -55 6 -9 5 -12 4 -8 -2z m187 -283
c0 5 12 5 30 0 17 -5 30 -6 30 -2 0 9 125 6 139 -3 6 -3 11 -1 11 5 0 7 6 8
16 2 9 -5 26 -7 38 -5 17 4 18 3 6 -6 -8 -6 -10 -11 -4 -11 6 0 14 3 18 7 9
10 48 15 43 6 -3 -5 34 -8 81 -9 48 0 98 -4 111 -8 17 -6 22 -5 16 4 -6 9 -1
9 16 -1 13 -7 40 -13 59 -14 19 -1 44 -6 54 -10 14 -6 17 -5 11 4 -6 10 -3 11
12 2 11 -5 37 -11 57 -13 20 -1 36 -5 36 -8 0 -3 15 -5 33 -5 17 1 37 -2 44
-8 7 -5 17 -6 22 -3 5 4 12 2 16 -4 3 -5 19 -8 35 -6 16 2 31 -1 32 -5 2 -5
22 -10 45 -12 22 -1 39 -5 36 -9 -4 -7 34 -12 75 -11 6 1 12 -3 12 -8 0 -5 12
-9 26 -9 14 0 23 -4 20 -8 -3 -5 7 -9 22 -9 15 -1 43 -7 62 -14 19 -6 42 -14
50 -17 8 -3 23 -6 32 -7 10 -1 24 -8 33 -15 8 -7 15 -9 15 -5 0 4 8 1 17 -6 9
-8 14 -9 10 -3 -4 7 10 3 30 -7 21 -11 45 -16 55 -13 10 3 17 2 16 -3 -2 -4 0
-9 5 -10 4 -2 20 -9 36 -17 16 -9 31 -12 35 -9 3 4 6 1 6 -5 0 -7 9 -12 20
-12 18 0 57 -17 70 -30 3 -3 14 -7 25 -8 11 -2 22 -8 23 -13 2 -5 8 -7 13 -3
5 3 9 0 9 -7 0 -7 3 -9 6 -6 4 3 16 1 28 -5 21 -12 27 -14 47 -17 5 0 7 -7 3
-13 -4 -7 -4 -10 1 -6 4 4 24 -1 44 -11 20 -11 38 -18 41 -17 3 0 19 -9 37
-22 17 -12 36 -22 42 -22 6 0 11 -5 11 -12 0 -6 3 -8 7 -5 3 4 12 2 20 -4 17
-15 68 -43 116 -64 20 -10 37 -21 37 -25 0 -5 9 -12 20 -15 11 -3 26 -13 34
-20 8 -8 20 -16 27 -17 7 -2 23 -12 37 -23 13 -11 29 -20 35 -20 7 -1 11 -6
10 -12 -1 -6 9 -14 22 -17 14 -4 25 -11 25 -16 0 -6 5 -10 11 -10 6 0 16 -6
24 -12 32 -31 54 -46 59 -41 3 3 8 -2 12 -11 3 -9 10 -13 15 -10 5 3 9 -2 9
-10 0 -9 6 -15 13 -14 6 2 11 -3 9 -10 -1 -8 2 -11 7 -8 5 4 21 -5 35 -19 14
-14 26 -23 26 -20 0 3 11 -5 24 -19 13 -15 26 -26 29 -26 7 0 71 -58 154 -137
25 -24 49 -43 54 -43 6 0 7 -4 4 -10 -3 -5 1 -10 10 -10 9 0 13 -4 10 -10 -3
-5 -1 -10 5 -10 12 0 110 -100 110 -112 0 -5 8 -8 17 -8 9 0 14 -3 10 -6 -3
-3 9 -21 26 -39 54 -55 102 -118 99 -127 -1 -5 1 -7 6 -4 5 3 19 -6 30 -19 12
-14 19 -25 15 -25 -3 0 5 -10 19 -22 14 -13 28 -31 31 -40 4 -10 11 -18 17
-18 6 0 9 -4 5 -9 -3 -6 4 -15 15 -21 11 -6 20 -15 20 -21 0 -5 11 -22 25 -37
14 -15 25 -31 25 -37 0 -6 11 -23 25 -38 14 -15 22 -27 18 -27 -4 0 -3 -4 3
-8 15 -10 89 -125 86 -134 -1 -5 2 -8 6 -8 5 0 17 -18 27 -40 10 -22 22 -37
26 -34 5 3 6 -2 3 -10 -3 -9 -1 -16 5 -16 6 0 11 -7 11 -15 0 -8 5 -15 10 -15
6 0 10 -9 10 -20 0 -11 4 -20 8 -20 5 0 14 -16 22 -35 8 -19 18 -35 22 -35 5
0 7 -4 4 -9 -3 -5 1 -14 9 -21 8 -7 15 -19 15 -26 0 -17 21 -56 35 -66 6 -4 7
-8 3 -8 -4 0 6 -25 22 -57 16 -31 27 -60 24 -65 -3 -4 -1 -8 5 -8 9 0 32 -55
30 -74 0 -5 4 -12 11 -16 6 -4 12 -13 13 -21 2 -8 5 -18 8 -24 4 -5 12 -31 20
-57 7 -27 17 -48 22 -48 4 0 7 -8 5 -18 -2 -11 3 -26 11 -35 7 -10 10 -17 6
-17 -4 0 -2 -7 5 -15 7 -9 10 -18 7 -22 -3 -3 1 -19 9 -35 9 -16 13 -36 10
-43 -2 -7 2 -16 9 -19 8 -3 12 -12 9 -21 -4 -8 -1 -15 6 -15 9 0 10 -3 1 -14
-9 -10 -8 -15 2 -19 9 -3 13 -16 12 -31 -2 -14 1 -26 6 -26 5 0 9 -13 9 -30 0
-16 4 -30 9 -30 4 0 7 -10 7 -22 -1 -13 2 -32 8 -43 6 -11 11 -36 12 -55 0
-20 6 -34 12 -33 8 2 9 -5 3 -19 -5 -14 -3 -31 5 -47 9 -18 10 -27 3 -32 -8
-5 -8 -9 0 -13 6 -4 9 -12 6 -17 -4 -5 -2 -9 3 -9 5 0 8 -13 7 -30 -1 -16 1
-30 4 -30 4 0 8 -12 9 -27 1 -16 3 -47 4 -70 1 -24 7 -43 13 -43 5 0 3 -5 -5
-10 -8 -5 -10 -10 -5 -10 6 0 11 -26 12 -57 1 -32 2 -58 3 -58 13 0 20 -596 7
-612 -6 -9 -5 -13 4 -13 9 0 10 -3 4 -8 -6 -4 -11 -27 -12 -52 -5 -95 -6 -99
-17 -93 -6 4 -5 -1 3 -10 9 -11 10 -17 2 -17 -6 0 -11 -5 -11 -11 0 -5 6 -7
13 -3 9 6 9 4 1 -7 -5 -8 -10 -26 -9 -41 0 -16 -2 -28 -6 -28 -3 0 -4 -12 -1
-26 3 -15 1 -24 -4 -21 -5 3 -10 -14 -11 -36 -1 -23 -5 -55 -8 -72 -4 -16 -7
-37 -8 -45 0 -8 -5 -21 -11 -29 -9 -12 -8 -13 3 -6 11 6 12 5 5 -6 -5 -8 -10
-25 -12 -39 -2 -13 -9 -31 -15 -39 -9 -12 -9 -13 0 -7 9 5 11 2 7 -8 -3 -9
-11 -16 -18 -16 -7 0 -6 -3 2 -9 11 -6 10 -11 -3 -25 -9 -9 -11 -16 -5 -16 6
0 8 -5 3 -12 -9 -16 -14 -37 -14 -61 0 -10 -5 -15 -11 -11 -6 4 -9 3 -5 -2 6
-10 -16 -105 -29 -126 -4 -7 -9 -26 -11 -42 -2 -17 -9 -34 -16 -38 -6 -4 -8
-8 -3 -8 5 0 4 -6 -1 -12 -5 -7 -9 -22 -9 -33 1 -11 -3 -23 -8 -27 -5 -3 -11
-16 -13 -28 -2 -11 -10 -34 -18 -50 -8 -16 -15 -36 -15 -45 0 -8 -4 -15 -8
-15 -5 0 -9 -7 -10 -15 -1 -8 -3 -22 -4 -30 -1 -8 -5 -15 -10 -15 -5 0 -6 -4
-3 -10 3 -5 1 -10 -4 -10 -6 0 -10 -3 -10 -7 1 -8 0 -12 -6 -30 -2 -5 -6 -18
-10 -30 -4 -13 -11 -23 -16 -23 -5 0 -8 -3 -7 -7 4 -12 -24 -76 -39 -91 -7 -8
-11 -18 -8 -23 4 -5 1 -9 -5 -9 -6 0 -8 -4 -5 -10 3 -5 2 -10 -3 -10 -9 0 -23
-31 -26 -55 -1 -5 -7 -15 -15 -21 -8 -6 -11 -16 -7 -22 4 -7 2 -12 -4 -12 -6
0 -14 -8 -17 -17 -4 -10 -15 -29 -25 -42 -10 -13 -15 -27 -12 -32 3 -5 0 -9
-7 -9 -7 0 -10 -3 -6 -6 3 -4 1 -12 -6 -20 -21 -24 -33 -39 -34 -44 -8 -32
-25 -60 -33 -55 -6 4 -10 3 -9 -2 4 -14 -20 -63 -31 -63 -5 0 -10 -7 -10 -14
0 -8 -11 -27 -25 -42 -13 -14 -22 -30 -20 -34 3 -4 -2 -10 -10 -14 -8 -3 -15
-13 -15 -21 0 -9 -4 -13 -10 -10 -5 3 -10 -1 -10 -9 0 -9 -8 -25 -17 -35 -37
-41 -48 -56 -45 -64 1 -4 -5 -10 -13 -13 -8 -4 -15 -12 -15 -20 0 -8 -6 -13
-12 -12 -8 2 -12 -5 -10 -16 2 -10 -1 -15 -7 -12 -5 4 -12 -3 -16 -14 -3 -11
-18 -29 -32 -40 -14 -11 -22 -20 -18 -20 3 0 -9 -16 -29 -35 -20 -19 -37 -38
-37 -42 -1 -5 -5 -7 -10 -5 -5 1 -9 -7 -9 -18 0 -13 -5 -18 -15 -14 -9 4 -15
0 -15 -8 0 -8 -28 -43 -62 -79 -35 -35 -62 -67 -60 -72 1 -4 -4 -6 -10 -5 -7
2 -12 -3 -10 -10 1 -8 -1 -11 -6 -8 -4 2 -25 -15 -47 -40 -22 -24 -43 -44 -48
-44 -4 0 -31 -23 -58 -51 -27 -28 -49 -48 -49 -45 0 3 -16 -10 -37 -29 -20
-19 -41 -31 -46 -28 -6 3 -7 2 -4 -4 3 -5 -4 -16 -15 -24 -12 -8 -31 -23 -43
-34 -22 -21 -29 -25 -46 -25 -5 0 -8 -4 -4 -9 3 -5 -4 -12 -15 -16 -11 -3 -20
-11 -20 -16 0 -6 -4 -7 -10 -4 -5 3 -10 -1 -10 -9 0 -9 -3 -15 -7 -14 -9 3
-60 -29 -81 -49 -8 -7 -18 -10 -24 -7 -6 4 -8 3 -5 -2 3 -6 -19 -25 -49 -43
-30 -17 -54 -36 -54 -41 0 -5 -7 -7 -15 -4 -8 4 -15 1 -15 -5 0 -6 -7 -11 -15
-11 -8 0 -15 -5 -15 -11 0 -6 -7 -9 -15 -5 -8 3 -14 2 -12 -2 1 -4 -2 -8 -7
-9 -5 -1 -12 -6 -15 -11 -3 -6 -13 -12 -21 -14 -8 -2 -23 -11 -32 -21 -9 -10
-18 -18 -20 -18 -14 2 -48 -13 -48 -21 0 -5 -4 -6 -10 -3 -5 3 -10 2 -10 -3 0
-5 -10 -13 -22 -17 -13 -4 -25 -8 -28 -10 -3 -1 -13 -5 -22 -9 -10 -5 -16 -12
-13 -17 3 -4 -3 -6 -14 -4 -11 2 -22 -3 -25 -12 -4 -8 -13 -13 -21 -9 -8 3
-15 1 -15 -4 0 -6 -6 -10 -14 -10 -22 0 -66 -26 -58 -34 4 -5 0 -7 -8 -6 -20
4 -81 -20 -76 -29 3 -4 -3 -7 -12 -8 -31 -2 -50 -9 -66 -22 -9 -7 -16 -10 -16
-6 0 4 -7 1 -17 -6 -9 -8 -17 -13 -17 -11 -1 4 -37 -7 -59 -19 -10 -5 -22 -7
-27 -4 -6 4 -10 1 -10 -4 0 -6 -7 -11 -15 -11 -9 0 -29 -7 -45 -15 -23 -12
-30 -13 -30 -3 -1 8 -7 5 -15 -6 -8 -11 -15 -17 -15 -14 0 3 -32 -5 -71 -18
-40 -13 -76 -21 -80 -18 -5 3 -12 -1 -15 -9 -3 -8 -16 -13 -29 -11 -14 1 -27
-2 -31 -7 -3 -5 -16 -9 -29 -9 -13 0 -27 -5 -30 -10 -5 -8 -12 -7 -23 2 -12
10 -14 10 -8 1 5 -9 -1 -13 -23 -13 -16 0 -33 -5 -37 -11 -4 -8 -9 -7 -15 2
-6 9 -9 10 -9 2 0 -6 -8 -10 -17 -8 -10 1 -27 -2 -38 -9 -11 -6 -36 -11 -55
-11 -19 0 -38 -4 -42 -9 -4 -6 -13 -4 -23 4 -13 10 -15 11 -13 1 2 -9 -10 -14
-32 -16 -19 -2 -60 -6 -90 -11 -30 -4 -67 -8 -82 -8 -16 -1 -28 -4 -28 -8 0
-5 -5 -8 -11 -8 -5 0 -7 5 -3 11 4 8 1 8 -12 2 -11 -5 -30 -9 -44 -8 -14 1
-33 -3 -42 -7 -10 -5 -18 -5 -18 0 0 5 -10 8 -22 6 -13 -1 -29 -3 -36 -3 -7
-1 -11 -5 -7 -10 3 -6 -4 -8 -17 -6 -13 3 -25 10 -27 16 -2 7 -6 8 -10 1 -8
-13 -82 -19 -100 -7 -9 5 -12 4 -7 -3 4 -7 -1 -10 -14 -9 -11 1 -20 5 -20 10
0 4 -5 5 -11 1 -16 -9 -109 -11 -109 -1 0 5 -5 5 -12 1 -7 -5 -28 -7 -48 -6
-19 1 -50 2 -67 3 -18 0 -33 5 -33 10 0 5 -11 4 -24 -1 -13 -5 -27 -6 -31 -2
-4 4 -28 8 -53 8 -26 1 -49 3 -52 4 -3 1 -17 1 -32 0 -16 -1 -28 4 -28 10 0 9
-3 10 -13 1 -8 -6 -16 -9 -18 -7 -4 4 -70 16 -119 21 -14 2 -26 4 -27 5 -2 1
-11 3 -20 4 -10 1 -24 5 -30 9 -7 5 -17 6 -22 3 -4 -3 -23 -1 -41 4 -18 5 -50
10 -71 12 -21 1 -36 5 -33 10 3 4 -13 8 -35 8 -23 0 -41 4 -41 9 0 5 -6 9 -12
8 -42 -1 -59 4 -52 16 5 8 2 8 -9 -2 -12 -9 -17 -10 -17 -2 0 7 -10 11 -22 9
-13 -2 -22 2 -21 7 1 6 -10 10 -25 10 -15 -1 -40 5 -55 13 -16 7 -34 11 -40 9
-7 -2 -18 2 -25 10 -8 7 -18 11 -23 8 -5 -4 -9 -1 -9 4 0 6 -5 11 -11 11 -5 0
-7 -6 -3 -12 4 -7 -2 -4 -14 6 -12 11 -22 16 -22 11 0 -4 -7 -2 -15 5 -8 7
-15 10 -15 6 0 -4 -13 0 -29 8 -16 9 -31 12 -34 9 -4 -3 -9 1 -13 10 -3 9 -12
13 -20 10 -8 -3 -21 0 -29 7 -8 7 -15 9 -15 5 0 -4 -6 -2 -13 4 -8 6 -17 8
-20 4 -4 -3 -7 -1 -7 5 0 7 -9 12 -20 12 -11 0 -20 5 -20 11 0 5 -4 8 -9 4 -5
-3 -12 -1 -16 5 -4 6 -11 8 -16 5 -5 -4 -9 -1 -9 5 0 7 -6 10 -14 7 -8 -3 -16
-2 -18 4 -2 5 -14 11 -28 14 -14 3 -26 9 -28 15 -2 5 -10 10 -18 10 -7 0 -29
9 -49 20 -20 11 -42 20 -51 20 -8 0 -12 5 -9 10 3 6 -3 10 -14 10 -12 0 -21 5
-21 10 0 6 -9 10 -20 10 -11 0 -20 5 -20 11 0 5 -4 8 -9 5 -5 -3 -12 1 -15 10
-4 9 -9 14 -12 11 -3 -3 -27 7 -52 22 -26 15 -55 30 -64 34 -10 3 -18 11 -18
17 0 6 -4 9 -9 6 -5 -3 -14 1 -21 9 -7 8 -16 15 -21 15 -11 0 -80 43 -131 83
-21 16 -38 25 -38 21 0 -4 -8 3 -19 14 -10 12 -22 22 -25 22 -4 0 -13 6 -21
12 -28 28 -55 47 -55 42 0 -4 -12 5 -26 20 -15 14 -30 26 -35 26 -4 0 -19 10
-31 22 -13 13 -42 37 -63 53 -22 17 -59 49 -82 71 -24 23 -43 39 -43 36 0 -3
-11 7 -25 22 -13 14 -30 26 -36 26 -7 0 -10 2 -7 5 5 5 -48 65 -58 65 -7 0
-184 187 -184 194 0 10 -81 86 -92 86 -10 0 -10 2 -1 8 9 6 5 13 -12 26 -14
10 -25 25 -25 33 0 8 -4 12 -9 8 -5 -3 -12 4 -16 15 -3 11 -11 20 -16 20 -5 0
-9 5 -9 11 0 5 -13 24 -30 42 -16 18 -30 36 -30 40 0 4 -9 17 -20 29 -10 12
-17 26 -13 31 4 6 1 7 -6 3 -8 -5 -14 0 -18 13 -3 12 -9 21 -14 21 -5 0 -9 7
-9 15 0 8 -4 15 -8 15 -12 0 -42 56 -34 65 4 5 3 6 -3 3 -11 -7 -28 10 -33 32
-2 8 -8 16 -13 18 -5 2 -9 10 -9 18 0 8 -5 14 -11 14 -5 0 -7 5 -4 10 3 6 2
10 -3 10 -4 0 -19 20 -31 45 -12 24 -26 47 -32 50 -5 4 -7 10 -4 15 3 4 -2 11
-11 14 -8 3 -12 10 -9 16 3 5 1 10 -4 10 -6 0 -11 9 -11 20 0 11 -4 20 -10 20
-5 0 -10 7 -10 15 0 8 -4 15 -10 15 -5 0 -9 3 -9 7 4 25 -2 43 -13 37 -8 -5
-9 0 -6 14 4 12 2 20 -3 16 -5 -3 -9 2 -9 10 0 9 -5 16 -11 16 -5 0 -7 5 -4
10 3 6 1 10 -6 10 -7 0 -9 3 -6 7 4 3 -3 21 -14 39 -11 19 -17 39 -13 45 4 8
3 9 -4 5 -7 -4 -13 -2 -13 3 -3 20 -5 26 -17 49 -7 12 -10 28 -6 34 4 7 3 8
-4 4 -11 -6 -15 5 -11 30 0 4 -3 10 -8 13 -14 10 -36 54 -23 46 13 -8 -9 36
-23 46 -5 3 -8 8 -6 10 2 3 -4 26 -16 62 -6 18 -7 22 -6 30 0 4 -3 7 -7 7 -4
0 -9 10 -9 22 -1 13 -7 24 -13 26 -5 2 -7 8 -4 13 3 6 2 18 -2 27 -4 9 -8 24
-8 32 -1 8 -6 14 -13 13 -7 -2 -10 3 -7 11 3 8 0 24 -6 36 -9 17 -9 21 0 15 8
-5 9 -2 1 11 -16 29 -42 116 -36 122 2 3 1 10 -4 16 -5 6 -14 36 -21 66 -7 30
-15 59 -18 64 -3 6 -6 32 -7 59 -1 27 -6 52 -11 55 -9 7 -12 26 -16 114 -2 27
-6 48 -10 48 -4 0 -7 8 -7 18 0 13 -9 135 -11 150 0 1 1 3 2 5 1 1 -4 12 -11
24 -9 18 -9 23 1 23 8 0 9 3 3 8 -5 4 -10 32 -10 62 0 30 -3 63 -7 72 -5 9 -4
19 1 22 7 5 8 41 1 41 -1 0 -3 30 -5 68 -3 50 -1 66 8 60 7 -4 6 1 -2 11 -13
15 -13 19 0 27 8 5 9 9 3 9 -17 0 -25 28 -12 36 7 5 8 2 3 -6 -5 -8 -4 -11 3
-6 14 9 3 38 -12 30 -6 -3 -2 2 8 10 11 9 15 16 9 16 -11 0 -11 39 0 58 5 6 4
12 -2 12 -7 0 -7 8 -1 25 7 17 6 25 -1 25 -8 0 -8 4 -2 13 5 6 9 30 8 52 -1
22 2 47 6 56 4 8 4 21 -1 29 -5 9 -5 19 2 27 6 7 7 13 3 13 -4 0 -2 7 5 15 9
11 9 15 1 15 -8 0 -9 6 -3 18 4 9 8 24 7 32 -1 8 4 21 9 29 8 11 8 13 -2 7 -6
-4 -12 -2 -12 3 0 6 4 11 9 11 6 0 9 8 9 18 0 9 3 40 7 67 4 28 8 64 10 80 2
17 4 34 4 38 1 5 4 6 9 4 4 -3 7 16 7 41 -1 26 3 53 8 60 6 7 11 20 12 30 4
40 18 98 27 109 5 7 7 16 4 21 -3 5 1 21 9 36 10 18 10 24 2 19 -9 -5 -9 -4 0
8 7 8 15 30 18 49 3 19 12 47 19 61 7 14 12 35 11 47 -1 12 3 22 9 22 10 0 15
19 19 78 1 12 7 20 14 18 6 -3 12 3 12 12 0 24 5 44 19 69 7 12 12 29 12 37 0
9 4 16 8 16 4 0 8 10 9 22 1 11 6 24 11 27 5 3 8 16 7 28 -1 12 3 21 9 20 5
-1 11 3 11 8 1 6 9 27 18 49 9 21 17 42 17 47 0 5 5 9 12 9 6 0 8 3 5 6 -3 4
-1 16 5 28 7 11 11 24 10 29 -1 4 2 7 7 7 9 0 37 60 33 73 -1 4 2 7 7 7 5 0
14 15 22 33 7 17 21 44 31 60 11 15 16 27 11 27 -4 0 0 5 10 11 9 6 15 14 12
20 -4 5 -3 9 2 9 4 0 14 14 21 30 8 17 18 27 24 24 7 -4 8 -2 4 5 -4 6 2 24
13 40 11 15 18 31 14 35 -3 3 1 6 11 6 9 0 15 4 11 9 -3 5 2 16 10 24 8 9 15
20 15 25 0 5 9 17 20 27 11 10 17 22 14 26 -3 5 -1 9 5 9 5 0 20 17 32 38 13
20 29 41 36 45 7 4 13 13 13 20 0 7 12 26 28 42 15 16 27 32 27 35 0 3 10 16
22 29 12 13 20 28 18 32 -3 4 4 11 16 14 11 4 18 9 15 12 -3 3 7 17 22 32 16
14 31 34 35 44 4 10 10 16 14 14 5 -3 19 13 33 34 13 21 30 39 37 39 7 0 13 5
13 11 0 6 15 26 34 45 19 19 49 52 67 74 18 21 36 37 39 35 4 -2 13 7 20 21 8
14 20 22 27 19 8 -2 12 -1 10 3 -2 4 21 31 50 60 29 28 53 49 53 45 0 -4 12 7
28 24 15 16 37 35 50 42 12 7 20 16 17 20 -3 5 7 12 21 15 15 4 24 10 20 13
-5 6 22 27 76 59 10 6 15 14 11 17 -3 4 1 7 10 7 10 0 17 5 17 10 0 6 5 10 11
10 6 0 16 6 24 13 24 22 60 51 65 51 3 0 12 6 20 13 8 7 20 14 25 15 6 1 18
11 28 22 10 12 16 14 12 6 -4 -8 2 -5 13 7 11 12 26 23 33 25 8 2 21 11 30 20
9 10 19 15 23 11 3 -3 6 -1 6 5 0 7 5 12 11 12 6 0 22 9 36 20 14 11 29 17 34
14 5 -3 9 0 9 5 0 6 7 11 16 11 8 0 12 5 9 10 -3 6 1 10 9 10 23 0 29 3 49 20
10 8 21 14 25 13 4 -1 18 8 31 20 13 12 21 15 17 7 -4 -8 0 -6 9 5 9 11 18 19
20 18 12 -4 44 10 40 18 -3 4 3 6 14 4 11 -2 22 3 25 11 3 8 14 14 25 14 11 0
23 5 26 10 4 6 11 8 16 5 5 -4 9 -1 9 5 0 6 5 8 10 5 6 -3 10 -1 10 4 0 6 4
11 10 11 5 0 36 13 68 28 32 16 68 28 80 27 11 -1 20 3 19 9 -1 6 6 10 16 10
9 -1 17 2 17 8 0 5 4 7 9 3 5 -3 12 -1 16 5 3 5 15 10 26 10 10 0 19 4 19 10
0 5 7 7 15 4 8 -4 15 -2 15 3 0 9 14 13 53 14 9 0 15 4 12 10 -4 5 8 9 25 9
21 0 29 4 24 12 -5 8 0 9 14 6 12 -4 25 -2 28 3 3 5 10 7 15 4 5 -4 9 -2 9 3
0 5 6 9 13 10 20 1 41 7 52 13 6 4 18 5 28 4 9 -2 17 1 17 6 0 6 5 7 10 4 6
-3 10 0 10 7 0 9 3 9 10 -2 5 -8 10 -10 10 -4 0 7 7 15 16 18 10 4 13 2 8 -7
-6 -9 -4 -9 8 1 9 7 20 12 24 10 5 -1 20 4 33 11 17 9 21 10 16 1 -6 -9 -2 -9
15 0 12 6 31 10 41 7 10 -3 17 -2 14 3 -7 11 14 17 56 16 22 -1 35 3 33 9 -3
6 14 10 41 9 25 0 45 2 45 6 0 3 10 6 23 6 12 1 45 4 72 9 28 4 66 9 85 11 19
1 45 5 58 8 12 3 22 0 22 -5 0 -6 5 -7 10 -4 6 4 8 9 6 13 -2 4 21 7 52 6 32
0 65 3 74 8 10 5 18 3 20 -4 3 -7 9 -8 19 -2 18 11 57 12 88 1 21 -7 22 -6 11
8 -11 14 -10 14 14 6 15 -6 26 -7 26 -1z"/>
<path d="M4250 6904 c-198 -27 -484 -115 -624 -193 -53 -30 -59 -31 -183 -31
-129 0 -160 -7 -185 -44 -4 -6 -8 -610 -8 -1343 l0 -1332 24 -27 23 -28 2103
-1 2102 0 24 28 24 28 0 1332 c-1 1031 -3 1336 -13 1348 -25 32 -56 39 -184
39 -120 0 -131 2 -173 26 -78 45 -260 114 -395 149 -288 76 -602 84 -888 24
-97 -20 -300 -84 -363 -114 -18 -8 -56 -26 -84 -39 l-52 -24 -36 19 c-92 52
-309 127 -462 159 -183 38 -464 48 -650 24z m465 -175 c109 -13 131 -18 234
-44 88 -22 231 -75 324 -120 l37 -19 0 -1134 c0 -1076 -1 -1134 -17 -1127
-289 119 -524 165 -823 160 -254 -4 -460 -44 -677 -131 -46 -19 -86 -34 -89
-34 -2 0 -4 510 -4 1133 l0 1132 53 27 c105 55 335 128 449 143 25 4 68 10 95
14 64 11 330 11 418 0z m1809 -4 c192 -27 331 -66 498 -142 l77 -35 0 -1134
c0 -624 -3 -1134 -5 -1134 -3 0 -21 7 -42 16 -458 197 -1025 202 -1481 14 -41
-16 -75 -30 -77 -30 -2 0 -4 510 -4 1133 l0 1132 63 32 c71 36 231 93 327 116
61 15 84 19 205 36 96 14 328 12 439 -4z m-3003 -237 c0 -7 1 -551 2 -1210 l2
-1196 -47 0 c-47 -1 -48 0 -48 31 -1 56 -1 2311 0 2350 l0 37 45 0 c29 0 45
-4 46 -12z m3849 -50 c1 -78 1 -2305 0 -2335 0 -19 -5 -22 -47 -21 l-48 0 2
1186 c1 653 2 1197 2 1210 1 19 6 22 46 22 l45 0 0 -62z m-2605 -2187 c168
-26 313 -71 490 -151 38 -17 17 -18 -743 -18 -430 1 -782 2 -782 5 0 13 239
103 340 127 58 14 196 39 275 49 50 7 356 -2 420 -12z m1715 8 c133 -18 140
-20 244 -44 105 -25 346 -115 346 -129 0 -2 -352 -3 -782 -3 l-783 0 70 33
c143 66 340 120 527 143 87 11 299 11 378 0z"/>
<path d="M9395 5171 c-3 -5 -2 -12 3 -15 5 -3 9 1 9 9 0 17 -3 19 -12 6z"/>
</g>
</svg>
